<?xml version="1.0" encoding="utf-8"?>
<!-- Generator: Adobe Illustrator 26.0.1, SVG Export Plug-In . SVG Version: 6.00 Build 0)  -->
<svg version="1.1" id="Layer_1" xmlns="http://www.w3.org/2000/svg" xmlns:xlink="http://www.w3.org/1999/xlink" x="0px" y="0px"
	 viewBox="0 0 160.17 126.3" style="enable-background:new 0 0 160.17 126.3;" xml:space="preserve">
<style type="text/css">
	.st0{fill:#FFFFFF;}
</style>
<g>
	<path class="st0" d="M155.94,38.85h-13.68L131.93,9.95C129.8,3.98,124.15,0,117.82,0H42.35c-6.33,0-11.98,3.98-14.11,9.95
		L17.92,38.85H4.23c-2.74,0-4.76,2.57-4.11,5.24l2.32,9.48c0.55,2.24,2.56,3.82,4.87,3.82h5.96c-0.01,0.44-0.06,0.88-0.06,1.32
		v45.31v15.41c0,3.8,3.08,6.88,6.88,6.88h8.53c3.8,0,6.88-3.08,6.88-6.88v-15.41h89.16v15.41c0,3.8,3.08,6.88,6.88,6.88h8.53
		c3.8,0,6.88-3.08,6.88-6.88v-15.41V58.7c0-0.44-0.04-0.88-0.06-1.32h5.96c2.31,0,4.32-1.58,4.87-3.82l2.32-9.48
		C160.7,41.43,158.68,38.85,155.94,38.85z M39.91,84.57c-7.18,0-13-5.64-13-12.59c0-6.95,5.82-12.59,13-12.59
		c7.18,0,13,5.64,13,12.59C52.91,78.93,47.09,84.57,39.91,84.57z M120.26,84.57c-7.18,0-13-5.64-13-12.59
		c0-6.95,5.82-12.59,13-12.59c7.18,0,13,5.64,13,12.59C133.26,78.93,127.44,84.57,120.26,84.57z M26.9,47.07l11.83-33.38
		c0.55-1.52,2-2.55,3.62-2.55h75.46c1.62,0,3.07,1.03,3.62,2.55l11.83,33.37H26.9z"/>
</g>
</svg>
