<svg xmlns="http://www.w3.org/2000/svg" width="20.24" height="20.239" viewBox="0 0 20.24 20.239"><path d="M.977.978a1.265,1.265,0,0,1,1.79,0l4.87,4.87a1.265,1.265,0,1,1-1.789,1.79L.978,2.768a1.265,1.265,0,0,1,0-1.79Z" transform="translate(12.231 12.23)" fill="#a8a8a8" fill-rule="evenodd"/><path d="M8.322,15.28A6.957,6.957,0,1,0,3.4,13.242a6.957,6.957,0,0,0,4.92,2.038Zm8.222-6.957a8.222,8.222,0,1,1-2.408-5.814,8.222,8.222,0,0,1,2.408,5.814Z" transform="translate(-0.1 -0.1)" fill="#a8a8a8" fill-rule="evenodd"/></svg>