<svg xmlns="http://www.w3.org/2000/svg" width="24" height="24" viewBox="0 0 24 24"><defs><style>.a{fill:#fff;}</style></defs><path class="a" d="M12,.313a12,12,0,1,0,12,12A12,12,0,0,0,12,.313Zm0,4.645A4.258,4.258,0,1,1,7.742,9.216,4.258,4.258,0,0,1,12,4.958ZM12,21.6a9.272,9.272,0,0,1-7.089-3.3,5.4,5.4,0,0,1,4.766-2.894,1.184,1.184,0,0,1,.344.053A6.407,6.407,0,0,0,12,15.8a6.382,6.382,0,0,0,1.979-.334,1.184,1.184,0,0,1,.344-.053A5.4,5.4,0,0,1,19.089,18.3,9.272,9.272,0,0,1,12,21.6Z" transform="translate(0 -0.313)"/></svg>