<?xml version="1.0" encoding="utf-8"?>
<!-- Generator: Adobe Illustrator 26.0.1, SVG Export Plug-In . SVG Version: 6.00 Build 0)  -->
<svg version="1.1" id="Layer_1" xmlns="http://www.w3.org/2000/svg" xmlns:xlink="http://www.w3.org/1999/xlink" x="0px" y="0px"
	 viewBox="0 0 296.16 126.3" style="enable-background:new 0 0 296.16 126.3;" xml:space="preserve">
<style type="text/css">
	.st0{fill:#FFFFFF;}
</style>
<g>
	<g>
		<g>
			<g>
				<path class="st0" d="M53.9,59.31c-0.59-2.38-0.97-4.08-1.16-5.1c-0.17,0.95-0.5,2.52-0.99,4.72c-0.5,2.18-1.6,6.5-3.3,12.94
					h8.72l-1.76-6.74C55,63.62,54.49,61.68,53.9,59.31z"/>
				<path class="st0" d="M95.59,62.37c0.87-0.65,1.31-1.63,1.31-2.92c0-2.3-1.74-3.45-5.22-3.45h-3.11v7.36h3.34
					C93.49,63.35,94.72,63.02,95.59,62.37z"/>
				<path class="st0" d="M92.24,71.46h-3.67v8.61h3.9c3.46,0,5.19-1.45,5.19-4.37c0-1.36-0.46-2.42-1.39-3.14
					C95.34,71.83,93.99,71.46,92.24,71.46z"/>
				<path class="st0" d="M274.05,0H22.1C9.95,0,0,9.95,0,22.1v82.1c0,12.16,9.95,22.1,22.1,22.1h251.95c12.16,0,22.1-9.95,22.1-22.1
					V22.1C296.16,9.95,286.21,0,274.05,0z M288.68,104.2c0,8.06-6.56,14.61-14.62,14.61H22.1c-8.06,0-14.62-6.56-14.62-14.61v-82.1
					c0-8.07,6.56-14.62,14.62-14.62h251.96c8.06,0,14.62,6.56,14.62,14.62V104.2z"/>
				<path class="st0" d="M274.06,12.47H22.1c-5.31,0-9.63,4.33-9.63,9.64v82.1c0,5.31,4.32,9.63,9.63,9.63h251.96
					c5.31,0,9.63-4.32,9.63-9.63v-82.1C283.69,16.8,279.37,12.47,274.06,12.47z M207.73,16.96c2.37,0,4.29,1.92,4.29,4.29
					s-1.92,4.29-4.29,4.29s-4.29-1.92-4.29-4.29S205.36,16.96,207.73,16.96z M88.43,16.96c2.37,0,4.29,1.92,4.29,4.29
					s-1.92,4.29-4.29,4.29c-2.37,0-4.29-1.92-4.29-4.29S86.06,16.96,88.43,16.96z M61.5,88.63l-2.02-7.69H46.14l-2.08,7.69H31.89
					l13.39-41.19h14.79l13.55,41.19H61.5z M104.88,85.42c-2.8,2.14-6.61,3.21-11.44,3.21H77.48V47.61h14.31
					c5.58,0,9.71,0.83,12.42,2.48c2.7,1.66,4.06,4.23,4.06,7.73c0,2.31-0.59,4.27-1.77,5.89c-1.18,1.63-2.73,2.68-4.66,3.15v0.28
					c2.54,0.67,4.38,1.79,5.52,3.36c1.14,1.58,1.71,3.61,1.71,6.12C109.07,80.34,107.68,83.27,104.88,85.42z M134.51,80.13
					c1.82,0,3.58-0.25,5.28-0.76c1.7-0.5,3.41-1.11,5.14-1.82v9.37c-3.42,1.52-7.3,2.28-11.62,2.28c-6.2,0-10.94-1.8-14.24-5.39
					c-3.3-3.59-4.95-8.79-4.95-15.58c0-4.25,0.8-7.98,2.4-11.19c1.6-3.22,3.9-5.7,6.9-7.42c3-1.73,6.53-2.6,10.59-2.6
					c4.43,0,8.67,0.96,12.71,2.89l-3.4,8.73c-1.51-0.71-3.03-1.32-4.54-1.8c-1.51-0.48-3.14-0.72-4.88-0.72
					c-2.64,0-4.7,1.08-6.18,3.23c-1.48,2.16-2.22,5.14-2.22,8.94C125.51,76.18,128.51,80.13,134.51,80.13z M164.98,77.6h-15.86
					v-8.76h15.86V77.6z M192.05,88.63h-11.25V66.92c0-2.64,0.05-5.06,0.17-7.25c-0.69,0.85-1.55,1.72-2.58,2.64l-4.66,3.85
					l-5.75-7.07l14.09-11.48h9.99V88.63z M230.2,88.63h-29.78v-7.3l10.02-10.13c2.86-2.99,4.73-5.04,5.61-6.13
					c0.88-1.09,1.49-2.04,1.84-2.83c0.35-0.78,0.52-1.61,0.52-2.46c0-1.07-0.35-1.91-1.04-2.52c-0.69-0.62-1.67-0.93-2.92-0.93
					c-1.29,0-2.6,0.37-3.92,1.1c-1.32,0.74-2.81,1.83-4.48,3.27l-6.09-7.13c2.11-1.89,3.89-3.23,5.33-4.05
					c1.44-0.81,3.01-1.43,4.7-1.86c1.69-0.44,3.59-0.65,5.71-0.65c2.65,0,5.03,0.47,7.11,1.4c2.09,0.94,3.71,2.27,4.86,4
					c1.15,1.72,1.72,3.67,1.72,5.83c0,1.61-0.2,3.09-0.6,4.46c-0.4,1.36-1.02,2.7-1.87,4.02c-0.84,1.32-1.96,2.71-3.35,4.17
					c-1.39,1.45-4.36,4.23-8.91,8.3v0.28h15.52V88.63z M258.6,85.91c-3.02,2.18-7.22,3.28-12.59,3.28c-2.21,0-4.25-0.17-6.13-0.48
					c-1.88-0.32-3.91-0.91-6.1-1.74v-9.21c1.8,0.92,3.62,1.6,5.48,2.04c1.87,0.44,3.58,0.66,5.15,0.66c2.43,0,4.2-0.34,5.31-1.02
					c1.12-0.68,1.67-1.75,1.67-3.21c0-1.12-0.29-1.99-0.87-2.6c-0.58-0.6-1.51-1.06-2.81-1.37c-1.29-0.3-2.97-0.46-5.05-0.46h-2.52
					v-8.34h2.58c5.63,0,8.45-1.44,8.45-4.32c0-1.09-0.42-1.89-1.25-2.42c-0.83-0.53-1.95-0.79-3.36-0.79
					c-2.62,0-5.33,0.89-8.13,2.64l-4.6-7.4c2.17-1.5,4.39-2.56,6.66-3.21c2.27-0.63,4.88-0.95,7.81-0.95c4.25,0,7.58,0.85,9.99,2.53
					c2.42,1.68,3.62,4,3.62,6.96c0,2.54-0.77,4.73-2.33,6.56c-1.55,1.82-3.79,3.15-6.73,3.97v0.17c6.84,0.87,10.27,4.1,10.27,9.71
					C263.13,80.72,261.62,83.72,258.6,85.91z"/>
			</g>
		</g>
	</g>
</g>
</svg>
