<svg xmlns="http://www.w3.org/2000/svg" width="32" height="32" viewBox="0 0 32 32">
  <path id="Icon_ionic-ios-arrow-dropleft-circle" data-name="Icon ionic-ios-arrow-dropleft-circle" d="M19.375,3.375a16,16,0,1,0,16,16A16,16,0,0,0,19.375,3.375Zm3.338,22.238a1.49,1.49,0,0,1,0,2.1,1.467,1.467,0,0,1-1.046.431,1.492,1.492,0,0,1-1.054-.438l-7.231-7.254a1.483,1.483,0,0,1,.046-2.046l7.338-7.362a1.485,1.485,0,0,1,2.1,2.1l-6.3,6.231Z" transform="translate(35.375 35.375) rotate(180)" opacity="0.32"/>
</svg>
