<svg xmlns="http://www.w3.org/2000/svg" viewBox="0 10 50 30">    
    <path d="M 2 10 C 0.9069372 10 0 10.906937 0 12 L 0 38 C 0 39.093063 0.9069372 40 2 40 L 48 40 C 49.093063 40 50 39.093063 50 38 L 50 12 C 50 10.906937 49.093063 10 48 10 L 2 10 z M 2 12 L 48 12 L 48 38 L 2 38 L 2 12 z M 8 14 A 1 1 0 0 0 7 15 A 1 1 0 0 0 8 16 A 1 1 0 0 0 9 15 A 1 1 0 0 0 8 14 z M 42 14 A 1 1 0 0 0 41 15 A 1 1 0 0 0 42 16 A 1 1 0 0 0 43 15 A 1 1 0 0 0 42 14 z M 13.234375 20 C 12.379375 20 11.6 20.059406 11 20.191406 L 11 29.896484 C 11.45 29.955484 12.080078 30 12.830078 30 C 14.525078 30 15.544531 29.648906 16.144531 29.003906 C 16.624531 28.520906 16.894531 27.889359 16.894531 27.068359 C 16.894531 25.983359 16.265703 25.030031 15.095703 24.707031 L 15.095703 24.648438 C 16.100703 24.223438 16.564453 23.372187 16.564453 22.492188 C 16.564453 21.803187 16.340781 21.143125 15.800781 20.703125 C 15.095781 20.116125 14.179375 20 13.234375 20 z M 22.080078 20 C 20.115078 20 18 21.443484 18 25.146484 C 18 27.930484 19.230547 30 21.810547 30 C 22.500547 30 23.054844 29.898578 23.339844 29.767578 L 23.144531 28.160156 C 22.904531 28.233156 22.529219 28.306641 22.199219 28.306641 C 20.999219 28.306641 20.085938 27.389969 20.085938 25.042969 C 20.085938 22.608969 21.089219 21.675781 22.199219 21.675781 C 22.634219 21.675781 22.890234 21.763234 23.115234 21.865234 L 23.445312 20.261719 C 23.250313 20.130719 22.770078 20 22.080078 20 z M 37.025391 20 C 36.134391 20 35.288937 20.319375 34.835938 20.609375 L 35.183594 22.158203 C 35.546594 21.930203 36.043109 21.65625 36.662109 21.65625 C 37.477109 21.65625 37.916016 22.219766 37.916016 23.009766 C 37.916016 24.422766 36.873469 25.776344 35.605469 27.402344 L 34.625 28.662109 L 34.625 30 L 40 30 L 40 28.251953 L 36.994141 28.251953 L 36.994141 28.222656 L 37.583984 27.523438 C 38.716984 26.200438 39.863281 24.711422 39.863281 22.857422 C 39.863281 21.444422 39.169391 20 37.025391 20 z M 43.714844 20 C 42.904844 20 42.110078 20.256719 41.705078 20.511719 L 41.960938 21.996094 C 42.320937 21.771094 42.754453 21.607422 43.189453 21.607422 C 43.879453 21.607422 44.330078 22.026422 44.330078 22.732422 C 44.330078 23.678422 43.399687 23.979141 42.679688 23.994141 L 42.484375 23.994141 L 42.484375 25.435547 L 42.755859 25.435547 C 43.760859 25.435547 44.585938 25.901422 44.585938 26.982422 C 44.585937 27.807422 44.060234 28.392578 43.115234 28.392578 C 42.590234 28.392578 42.050156 28.242578 41.660156 28.017578 L 41.375 29.564453 C 41.81 29.804453 42.499922 29.998047 43.294922 29.998047 C 45.409922 29.998047 46.550781 28.542641 46.550781 27.056641 C 46.550781 25.735641 45.829766 24.893125 44.884766 24.578125 L 44.884766 24.548828 C 45.739766 24.143828 46.279297 23.333422 46.279297 22.357422 C 46.279297 21.111422 45.424844 20 43.714844 20 z M 31.257812 20.125 L 29 21.294922 L 29.332031 22.859375 L 31 21.994141 L 31.029297 21.994141 L 31.029297 30 L 33 30 L 33 20.125 L 31.257812 20.125 z M 5.3046875 20.171875 L 3.1152344 29.996094 L 5.0195312 29.996094 L 5.46875 27.751953 L 7.2851562 27.751953 L 7.7207031 29.996094 L 9.625 29.996094 L 7.6601562 20.171875 L 5.3046875 20.171875 z M 13.474609 21.435547 C 14.284609 21.435547 14.630859 21.994891 14.630859 22.712891 C 14.630859 23.518891 14.089766 24.105469 13.384766 24.105469 L 12.964844 24.105469 L 12.964844 21.494141 C 13.084844 21.450141 13.264609 21.435547 13.474609 21.435547 z M 6.3984375 21.978516 L 6.4433594 21.978516 C 6.5343594 22.634516 6.6694375 23.612938 6.7734375 24.210938 L 7.1035156 26.265625 L 5.6640625 26.265625 L 6.0390625 24.224609 C 6.1430625 23.656609 6.2944375 22.634516 6.3984375 21.978516 z M 24 24 L 24 26 L 28 26 L 28 24 L 24 24 z M 12.964844 25.527344 L 13.384766 25.527344 C 14.164766 25.541344 14.855469 26.055109 14.855469 27.037109 C 14.855469 28.049109 14.195391 28.517578 13.400391 28.517578 C 13.220391 28.517578 13.084844 28.517281 12.964844 28.488281 L 12.964844 25.527344 z M 8 34 A 1 1 0 0 0 7 35 A 1 1 0 0 0 8 36 A 1 1 0 0 0 9 35 A 1 1 0 0 0 8 34 z M 42 34 A 1 1 0 0 0 41 35 A 1 1 0 0 0 42 36 A 1 1 0 0 0 43 35 A 1 1 0 0 0 42 34 z"/>
</svg>