<?xml version="1.0" encoding="utf-8"?>
<!-- Generator: Adobe Illustrator 26.0.1, SVG Export Plug-In . SVG Version: 6.00 Build 0)  -->
<svg version="1.1" id="Layer_1" xmlns="http://www.w3.org/2000/svg" xmlns:xlink="http://www.w3.org/1999/xlink" x="0px" y="0px"
	 viewBox="0 0 131.21 129.59" style="enable-background:new 0 0 131.21 129.59;" xml:space="preserve">
<style type="text/css">
	.st0{fill:#FFFFFF;}
</style>
<path class="st0" d="M127.88,110.14L92.98,75.24c4.38-7.43,6.94-16.05,6.94-25.28C99.93,22.41,77.51,0,49.96,0
	C22.41,0,0,22.41,0,49.96c0,27.55,22.41,49.96,49.96,49.96c10.07,0,19.44-3.02,27.3-8.17l34.5,34.5c2.22,2.23,5.14,3.34,8.06,3.34
	c2.92,0,5.83-1.11,8.06-3.34C132.33,121.8,132.33,114.58,127.88,110.14z M15.19,49.96c0-19.17,15.6-34.77,34.77-34.77
	c19.17,0,34.77,15.59,34.77,34.77s-15.6,34.77-34.77,34.77C30.79,84.73,15.19,69.13,15.19,49.96z"/>
</svg>
