<svg width="23" height="20" viewBox="0 0 23 20" fill="none" xmlns="http://www.w3.org/2000/svg">
<g clip-path="url(#clip0_102_2117)">
<path d="M19.716 12.5H8.265L8.521 13.75H19.005C19.1457 13.7501 19.2846 13.7819 19.4113 13.843C19.538 13.9041 19.6494 13.9929 19.7372 14.1028C19.825 14.2128 19.8869 14.3411 19.9184 14.4782C19.9498 14.6153 19.95 14.7578 19.919 14.895L19.703 15.843C20.1215 16.0456 20.4646 16.3762 20.6825 16.7869C20.9004 17.1977 20.9818 17.6671 20.9149 18.1273C20.848 18.5874 20.6363 19.0142 20.3104 19.3459C19.9846 19.6775 19.5615 19.8968 19.1026 19.9718C18.6438 20.0468 18.1729 19.9736 17.7584 19.763C17.3439 19.5523 17.0073 19.2151 16.7974 18.8002C16.5875 18.3854 16.5152 17.9144 16.591 17.4557C16.6668 16.9969 16.8868 16.5743 17.219 16.249H9.03C9.35723 16.5697 9.57548 16.985 9.65396 17.4364C9.73243 17.8878 9.66716 18.3524 9.46736 18.7647C9.26756 19.177 8.94332 19.5162 8.54041 19.7343C8.13749 19.9524 7.67625 20.0385 7.2218 19.9803C6.76734 19.9222 6.34261 19.7228 6.00757 19.4103C5.67253 19.0978 5.44409 18.688 5.3545 18.2387C5.26491 17.7893 5.31869 17.3232 5.50825 16.9061C5.69782 16.489 6.01359 16.142 6.411 15.914L3.667 2.5H0.938001C0.814868 2.50013 0.692917 2.47599 0.579119 2.42896C0.465322 2.38193 0.361909 2.31293 0.274795 2.22591C0.18768 2.13889 0.118572 2.03555 0.071421 1.92181C0.0242698 1.80806 4.64113e-07 1.68613 5.34237e-07 1.563V0.938001C-0.000131038 0.814784 0.0240413 0.692751 0.0711336 0.578888C0.118226 0.465025 0.187313 0.361568 0.274441 0.274441C0.361568 0.187313 0.465025 0.118226 0.578888 0.0711336C0.692751 0.0240413 0.814784 -0.000131038 0.938001 5.34237e-07H4.943C5.15897 0.00022316 5.36825 0.0749647 5.53549 0.211605C5.70274 0.348246 5.81771 0.538414 5.861 0.750001L6.219 2.5H21.562C21.7027 2.50013 21.8416 2.53191 21.9683 2.59298C22.095 2.65406 22.2064 2.74286 22.2942 2.85282C22.382 2.96277 22.4439 3.09107 22.4754 3.2282C22.5068 3.36532 22.507 3.50778 22.476 3.645L20.63 11.77C20.583 11.9773 20.467 12.1625 20.3009 12.2951C20.1348 12.4278 19.9286 12.5 19.716 12.5ZM15.744 7.5H14.063V5.156C14.063 5.03161 14.0136 4.91232 13.9256 4.82437C13.8377 4.73641 13.7184 4.687 13.594 4.687H12.657C12.5326 4.687 12.4133 4.73641 12.3254 4.82437C12.2374 4.91232 12.188 5.03161 12.188 5.156V7.5H10.507C10.4144 7.50025 10.324 7.52789 10.2471 7.57944C10.1702 7.63099 10.1103 7.70415 10.0749 7.78969C10.0395 7.87523 10.0302 7.96934 10.0482 8.06015C10.0662 8.15096 10.1107 8.23442 10.176 8.3L12.794 10.918C12.8819 11.0059 13.0012 11.0552 13.1255 11.0552C13.2498 11.0552 13.3691 11.0059 13.457 10.918L16.075 8.3C16.1403 8.23442 16.1848 8.15096 16.2028 8.06015C16.2208 7.96934 16.2115 7.87523 16.1761 7.78969C16.1407 7.70415 16.0808 7.63099 16.0039 7.57944C15.927 7.52789 15.8366 7.50025 15.744 7.5Z" fill="#212121"/>
</g>
<defs>
<clipPath id="clip0_102_2117">
<rect width="22.5" height="20" fill="white"/>
</clipPath>
</defs>
</svg>
