<svg xmlns="http://www.w3.org/2000/svg" width="22.5" height="20" viewBox="0 0 22.5 20"><path d="M19.716,12.5H8.265l.256,1.25H19.005a.938.938,0,0,1,.914,1.145l-.216.948a2.188,2.188,0,1,1-2.484.406H9.03a2.187,2.187,0,1,1-2.619-.335L3.667,2.5H.938A.937.937,0,0,1,0,1.563V.938A.937.937,0,0,1,.938,0H4.943a.938.938,0,0,1,.918.75L6.219,2.5H21.562a.938.938,0,0,1,.914,1.145L20.63,11.77A.937.937,0,0,1,19.716,12.5Zm-3.972-5H14.063V5.156a.469.469,0,0,0-.469-.469h-.937a.469.469,0,0,0-.469.469V7.5H10.507a.469.469,0,0,0-.331.8l2.618,2.618a.469.469,0,0,0,.663,0L16.075,8.3a.469.469,0,0,0-.331-.8Z" fill="#223b76"/></svg>