<svg width="30" height="30" viewBox="0 0 30 30" fill="none" xmlns="http://www.w3.org/2000/svg">
<path d="M19.3496 0C19.6811 0 19.999 0.13179 20.2334 0.366211C20.4677 0.600619 20.5996 0.918541 20.5996 1.25C20.5995 1.5814 20.4677 1.89945 20.2334 2.13379C19.999 2.36809 19.681 2.5 19.3496 2.5H4.58301C4.03047 2.5 3.50105 2.71965 3.11035 3.11035C2.71965 3.50105 2.5 4.03047 2.5 4.58301V24.583C2.5 25.1355 2.71965 25.665 3.11035 26.0557C3.50105 26.4464 4.03047 26.666 4.58301 26.666H24.583C25.1355 26.666 25.665 26.4464 26.0557 26.0557C26.4464 25.665 26.666 25.1355 26.666 24.583V11.7334C26.666 11.402 26.798 11.084 27.0322 10.8496C27.2666 10.6153 27.5846 10.4835 27.916 10.4834C28.2475 10.4834 28.5654 10.6152 28.7998 10.8496C29.0342 11.084 29.166 11.4019 29.166 11.7334V24.583C29.166 25.7986 28.6838 26.9647 27.8242 27.8242C26.9647 28.6838 25.7986 29.166 24.583 29.166H4.58301C3.36743 29.166 2.20134 28.6838 1.3418 27.8242C0.482255 26.9647 1.34185e-07 25.7986 0 24.583V4.58301C0 3.36743 0.482255 2.20134 1.3418 1.3418C2.20134 0.482255 3.36743 0 4.58301 0H19.3496ZM27 2.8125C27.2545 2.85622 27.4892 2.97762 27.6719 3.16016C27.8547 3.34294 27.9768 3.57824 28.0205 3.83301C28.0642 4.08775 28.0274 4.34978 27.916 4.58301L12.916 19.583C12.7034 19.8254 12.4045 19.9754 12.083 20C11.7615 19.9754 11.4626 19.8254 11.25 19.583L6.25 14.583C6.13861 14.3498 6.10182 14.0878 6.14551 13.833C6.18922 13.5782 6.31136 13.3429 6.49414 13.1602C6.67681 12.9776 6.9115 12.8562 7.16602 12.8125C7.42064 12.7688 7.68286 12.8048 7.91602 12.916L12.0332 17.0332L26.25 2.91602C26.4832 2.80476 26.7454 2.76881 27 2.8125Z" fill="#5470B3"/>
</svg>
