<svg width="30" height="30" viewBox="0 0 30 30" fill="none" xmlns="http://www.w3.org/2000/svg">
<path d="M4.4516 0.283203L10.3422 4.81445C10.6821 5.09766 10.9086 5.49414 10.9086 5.89062V8.94922L17.0825 15.123C18.725 14.3301 20.7641 14.6133 22.1235 15.9727L28.4672 22.3164C29.2036 22.9961 29.2036 24.1855 28.4672 24.8652L24.8422 28.4902C24.1625 29.2266 22.9731 29.2266 22.2934 28.4902L15.9496 22.1465C14.5903 20.7871 14.3071 18.6914 15.1567 17.0488L8.98285 10.875H5.86761C5.47113 10.875 5.07465 10.7051 4.79144 10.3652L0.260193 4.47461C-0.136292 3.9082 -0.0796509 3.17188 0.430115 2.66211L2.69574 0.396484C3.14886 -0.0566406 3.94183 -0.113281 4.4516 0.283203ZM1.33636 21.3535L9.09613 13.5938L11.0219 15.5195L3.26215 23.2793C2.9223 23.6191 2.75238 24.0723 2.75238 24.5254C2.75238 25.4883 3.54535 26.2812 4.50824 26.2812C4.96136 26.2812 5.41449 26.1113 5.75433 25.7715L12.8344 18.6914C12.7778 19.7676 13.0043 20.8438 13.5141 21.8633L7.68011 27.6973C6.83051 28.5469 5.69769 29 4.50824 29C2.01605 29 0.0336304 27.0176 0.0336304 24.5254C0.0336304 23.3359 0.486755 22.2031 1.33636 21.3535ZM26.2582 9.28906L24.8422 10.7617C24.1625 11.4414 23.2563 11.7812 22.2934 11.7812H20.8774C18.8383 11.7812 17.2524 10.1953 17.2524 8.15625V6.74023C17.2524 5.77734 17.5922 4.87109 18.2719 4.19141L19.7446 2.77539C16.3461 2.88867 13.6274 5.66406 13.6274 9.0625V9.11914L12.7211 8.21289V5.89062C12.7211 5.32422 12.5512 4.75781 12.268 4.30469C13.8539 1.75586 16.686 0 19.9711 0C21.3305 0 22.6899 0.339844 23.8793 0.90625C24.3891 1.18945 24.4457 1.86914 24.0493 2.26562L20.1977 6.11719C20.0278 6.28711 19.9711 6.51367 19.9711 6.74023V8.21289C19.9711 8.66602 20.3676 9.11914 20.8774 9.11914H22.2934C22.52 9.11914 22.7465 9.00586 22.9164 8.83594L26.768 4.98438C27.1645 4.58789 27.8442 4.64453 28.1274 5.1543C28.6938 6.34375 29.0336 7.70312 29.0336 9.11914C29.0336 12.1211 27.5043 14.8398 25.1821 16.4824L23.4262 14.6699C23.3696 14.6133 23.3129 14.5566 23.2563 14.5C25.0121 13.4238 26.2016 11.498 26.2582 9.28906Z" fill="#5470B3"/>
</svg>
